<?xml version="1.0" standalone="no"?>
<!DOCTYPE svg PUBLIC "-//W3C//DTD SVG 20010904//EN"
 "http://www.w3.org/TR/2001/REC-SVG-20010904/DTD/svg10.dtd">
<svg version="1.0" xmlns="http://www.w3.org/2000/svg"
 width="864.000000pt" height="864.000000pt" viewBox="0 0 864.000000 864.000000"
 preserveAspectRatio="xMidYMid meet">
<metadata>
Created by potrace 1.14, written by Peter Selinger 2001-2017
</metadata>
<g transform="translate(0.000000,864.000000) scale(0.100000,-0.100000)"
fill="#000000" stroke="none">
<path d="M420 6055 c0 -3 11 -24 26 -46 14 -22 33 -55 43 -72 10 -18 64 -108
120 -201 55 -93 101 -170 101 -172 0 -2 14 -23 30 -47 17 -25 30 -47 30 -50 0
-3 23 -42 50 -86 28 -45 47 -81 43 -81 -5 0 0 -5 10 -11 9 -5 17 -14 17 -20 0
-5 24 -49 53 -97 67 -109 258 -430 273 -457 6 -11 29 -50 52 -88 23 -37 42
-72 42 -77 0 -6 4 -10 8 -10 5 0 16 -16 25 -35 9 -19 29 -54 44 -77 15 -24 28
-45 28 -48 0 -3 8 -16 17 -30 45 -68 378 -633 378 -641 0 -5 4 -9 9 -9 5 0 11
-8 14 -17 4 -10 18 -36 32 -58 13 -22 30 -51 37 -65 7 -14 15 -27 18 -30 6 -6
110 -180 110 -185 0 -2 16 -27 35 -56 19 -30 35 -59 35 -65 0 -7 3 -14 8 -16
6 -2 84 -127 102 -163 11 -22 64 -110 70 -115 3 -3 16 -25 29 -50 13 -25 30
-52 37 -61 8 -8 14 -19 14 -22 0 -4 23 -44 50 -88 28 -44 50 -82 50 -84 0 -1
29 -51 65 -110 36 -59 65 -109 65 -113 0 -3 6 -13 14 -21 7 -9 25 -36 38 -61
14 -25 39 -69 57 -99 17 -29 33 -58 34 -64 2 -12 -12 -12 -1150 -17 -255 -2
-463 -5 -463 -7 0 -6 33 -66 40 -73 3 -3 59 -94 125 -203 66 -109 128 -210
137 -225 10 -15 21 -33 25 -41 7 -16 108 -180 120 -196 7 -9 20 -32 57 -99 6
-11 19 -29 29 -40 9 -11 17 -23 17 -28 0 -5 16 -32 35 -61 l35 -53 1418 0
c1493 1 1440 -1 1397 42 -7 8 -17 23 -20 34 -3 11 -11 20 -16 20 -5 0 -9 5 -9
10 0 6 -21 43 -48 83 -65 100 -71 110 -79 127 -4 8 -9 17 -13 20 -5 4 -508
790 -535 838 -5 9 -22 36 -37 59 -16 23 -28 44 -28 48 0 4 -6 12 -12 19 -17
17 -33 42 -61 89 -25 43 -90 145 -194 304 -40 62 -73 117 -73 123 0 5 -4 10
-10 10 -5 0 -10 6 -10 13 0 8 -9 22 -20 32 -11 10 -20 22 -20 27 0 5 -18 36
-40 68 -22 32 -40 63 -40 68 0 4 -8 17 -18 28 -10 10 -21 26 -25 34 -4 8 -24
41 -45 73 -20 31 -75 117 -121 190 -47 72 -108 168 -136 212 -29 44 -91 143
-140 220 -92 147 -111 176 -219 343 -36 56 -66 107 -66 112 0 6 -4 10 -9 10
-5 0 -13 10 -17 23 -4 12 -10 24 -14 27 -8 6 -100 149 -100 156 0 3 -6 12 -12
19 -7 8 -35 50 -63 95 -27 44 -82 130 -122 190 -39 61 -73 114 -75 118 -8 20
-144 227 -150 230 -5 2 -8 8 -8 12 0 12 -142 234 -152 238 -5 2 -8 8 -8 14 0
6 -19 40 -43 77 -49 75 -92 142 -163 254 -27 43 -71 113 -99 155 l-50 77 -507
3 c-280 1 -508 0 -508 -3z"/>
<path d="M2280 6055 c0 -9 34 -59 45 -67 6 -5 6 -8 0 -8 -6 0 -6 -3 0 -8 10
-6 28 -35 136 -207 21 -33 42 -64 46 -70 4 -5 17 -27 28 -48 11 -21 27 -46 35
-56 8 -9 21 -27 28 -39 6 -12 18 -32 25 -44 6 -12 16 -27 20 -32 4 -6 36 -56
70 -111 34 -55 65 -101 69 -103 5 -2 8 -8 8 -14 0 -5 14 -29 30 -53 17 -24 30
-48 30 -54 0 -6 3 -11 8 -11 4 0 16 -17 27 -37 11 -20 25 -42 30 -48 6 -6 17
-23 25 -38 8 -15 71 -116 140 -225 69 -108 130 -205 135 -214 6 -10 46 -74 90
-143 44 -69 121 -192 172 -273 51 -81 97 -152 102 -159 6 -7 11 -15 11 -18 0
-3 8 -18 19 -33 20 -29 21 -31 217 -342 132 -210 168 -267 181 -286 16 -21 33
-49 40 -64 10 -22 99 -161 123 -192 11 -14 20 -29 20 -33 0 -3 14 -26 30 -50
17 -24 30 -46 30 -50 0 -3 5 -11 11 -18 5 -7 64 -97 129 -202 66 -104 128
-203 138 -220 11 -16 35 -55 54 -85 19 -30 56 -87 81 -127 26 -40 47 -77 47
-83 0 -5 3 -10 8 -10 4 0 18 -20 31 -45 13 -25 28 -45 32 -45 5 0 8 -3 7 -8
-1 -4 11 -27 27 -52 15 -25 48 -75 72 -113 24 -37 43 -71 43 -76 0 -5 3 -11 8
-13 4 -1 41 -57 82 -123 41 -66 77 -122 81 -125 3 -3 8 -10 10 -15 4 -10 73
-122 139 -225 14 -21 51 -81 83 -132 l58 -93 543 1 c298 0 548 4 554 8 7 4 12
3 12 -2 0 -8 73 -6 98 3 6 2 12 1 12 -3 0 -4 14 -7 30 -7 17 0 30 2 30 5 0 3
23 5 50 5 28 0 50 -3 50 -7 0 -4 11 -3 24 2 13 5 27 6 30 3 5 -6 65 -7 84 -3
6 2 23 2 77 0 100 -3 1216 8 1220 12 3 2 -28 54 -68 114 -40 60 -115 174 -167
254 -52 80 -98 147 -102 148 -4 2 -8 7 -8 12 0 5 -28 51 -62 102 -35 51 -68
103 -74 115 -7 12 -17 28 -23 35 -6 7 -44 63 -84 123 l-72 111 -340 -3 c-187
-1 -545 -4 -795 -6 l-455 -3 -32 45 c-18 25 -36 51 -40 56 -4 6 -14 22 -22 38
-8 15 -18 27 -23 27 -4 0 -8 6 -8 13 0 8 -9 22 -20 32 -11 10 -20 24 -20 30 0
7 -7 19 -16 26 -9 7 -20 22 -25 34 -5 11 -25 40 -43 65 -19 25 -35 50 -35 57
-1 6 -4 13 -9 15 -7 3 -136 192 -457 673 -66 99 -123 185 -128 190 -4 6 -80
118 -169 250 -88 132 -237 355 -331 495 -94 140 -175 257 -179 258 -4 2 -8 8
-8 14 0 8 -32 58 -73 113 -22 30 -93 139 -102 156 -5 10 -13 19 -17 19 -5 0
-8 6 -8 14 0 8 -3 16 -7 18 -7 3 -41 51 -78 109 -30 48 -71 104 -77 107 -5 2
-8 8 -8 12 0 8 -39 72 -58 95 -5 6 -123 181 -263 390 -140 209 -257 382 -260
385 -3 3 -12 16 -19 29 -7 14 -17 30 -22 35 -18 22 -58 82 -69 104 l-12 22
-519 0 c-285 0 -518 -2 -518 -5z"/>
</g>
</svg>
