<?xml version="1.0" encoding="UTF-8" standalone="no"?>
<!DOCTYPE svg PUBLIC "-//W3C//DTD SVG 1.1//EN" "http://www.w3.org/Graphics/SVG/1.1/DTD/svg11.dtd">
<svg width="100%" height="100%" viewBox="0 0 53 43" version="1.1" xmlns="http://www.w3.org/2000/svg" xmlns:xlink="http://www.w3.org/1999/xlink" xml:space="preserve" xmlns:serif="http://www.serif.com/" style="fill-rule:evenodd;clip-rule:evenodd;stroke-linejoin:round;stroke-miterlimit:2;">
    <g transform="matrix(0.784093,0,0,1,6.275,5.2525)">
        <g transform="matrix(6.12323e-17,1,-1,6.12323e-17,58.082,-15.4255)">
            <path id="aFZf6T5ED" d="M52.127,0.607L52.21,23.099L21.295,47.952L21.295,39.688L45.836,18.642L45.766,5.934L52.127,0.607Z" style="fill:url(#_Linear1);fill-rule:nonzero;"/>
        </g>
        <g transform="matrix(3.06162e-16,1,-1,3.06162e-16,37.4885,5.16801)">
            <path id="a9fehgwfM" d="M31.617,8.968L31.617,31.646L25.219,36.618L25.178,23.604L0.701,42.178L0.704,34.071L31.617,8.968Z" style="fill:url(#_Linear2);fill-rule:nonzero;"/>
        </g>
    </g>
    <defs>
        <linearGradient id="_Linear1" x1="0" y1="0" x2="1" y2="0" gradientUnits="userSpaceOnUse" gradientTransform="matrix(2.5533e-15,41.6986,-41.6986,2.5533e-15,36.7538,0.478948)"><stop offset="0" style="stop-color:rgb(6,182,212);stop-opacity:1"/><stop offset="1" style="stop-color:rgb(103,232,249);stop-opacity:1"/></linearGradient>
        <linearGradient id="_Linear2" x1="0" y1="0" x2="1" y2="0" gradientUnits="userSpaceOnUse" gradientTransform="matrix(2.5533e-15,41.6986,-41.6986,2.5533e-15,16.1578,0.478948)"><stop offset="0" style="stop-color:rgb(6,182,212);stop-opacity:1"/><stop offset="1" style="stop-color:rgb(103,232,249);stop-opacity:1"/></linearGradient>
    </defs>
</svg>
